# xmcd CD database file
#
# Track frame offsets:
#	150
#	21390
#	43004
#	65214
#	84706
#	107658
#	136792
#	152739
#	175091
#	193116
#	213230
#
# Disc length: 3093 seconds
#
# Revision: 3
# Processed by: cddbd v1.4PL0 Copyright (c) Steve Scherf et al.
# Submitted via: CDex 1.40Beta9
#
DISCID=990c130b
DTITLE=Stevie Wonder - Jungle Fever
DYEAR=1900
DGENRE=
TTITLE0=Fun Day
TTITLE1=Queen In The Black
TTITLE2=These Three Words
TTITLE3=Each Other's Throat
TTITLE4=If She Breaks Your Heart
TTITLE5=Gotta Have You
TTITLE6=Make Sure You're Sure
TTITLE7=Jungle Fever
TTITLE8=I Go Sailing
TTITLE9=Chemical Love
TTITLE10=Lighting Up The Candles
EXTD=
EXTT0=
EXTT1=
EXTT2=
EXTT3=
EXTT4=
EXTT5=
EXTT6=
EXTT7=
EXTT8=
EXTT9=
EXTT10=
PLAYORDER=
